<svg width="36" height="37" viewBox="0 0 36 37" fill="none" xmlns="http://www.w3.org/2000/svg">
<circle cx="18" cy="18.5" r="18" fill="#D97706"/>
<path d="M22 28.5C20.8833 28.5 20.0375 28.3125 19.4625 27.9375C18.8875 27.5625 18.4 27.1667 18 26.75C17.6833 26.4167 17.3792 26.125 17.0875 25.875C16.7958 25.625 16.425 25.5 15.975 25.5C15.225 25.5 14.3917 25.3708 13.475 25.1125C12.5583 24.8542 11.6958 24.4292 10.8875 23.8375C10.0792 23.2458 9.4 22.475 8.85 21.525C8.3 20.575 8.01666 19.4083 8 18.025C7.96666 15.2417 8.65416 12.9583 10.0625 11.175C11.4708 9.39167 13.4417 8.5 15.975 8.5C17.1583 8.5 18.1583 8.67083 18.975 9.0125C19.7917 9.35417 20.4958 9.78333 21.0875 10.3C21.6792 10.8167 22.1792 11.3875 22.5875 12.0125C22.9958 12.6375 23.3833 13.2417 23.75 13.825C23.95 14.1583 24.15 14.4625 24.35 14.7375C24.55 15.0125 24.7667 15.2667 25 15.5C26 16.5 26.75 17.375 27.25 18.125C27.75 18.875 28 20.0083 28 21.525C28 23.525 27.3792 25.1875 26.1375 26.5125C24.8958 27.8375 23.5167 28.5 22 28.5ZM22 26.5C22.95 26.5 23.8542 26.0292 24.7125 25.0875C25.5708 24.1458 26 22.9583 26 21.525C26 20.425 25.8375 19.6167 25.5125 19.1C25.1875 18.5833 24.55 17.85 23.6 16.9C23.25 16.5667 22.9375 16.1958 22.6625 15.7875C22.3875 15.3792 22.1083 14.9583 21.825 14.525C21.1417 13.4417 20.4167 12.5 19.65 11.7C18.8833 10.9 17.6583 10.5 15.975 10.5C13.825 10.5 12.2833 11.2708 11.35 12.8125C10.4167 14.3542 9.96666 16.0833 10 18C10.0167 19.1167 10.2583 20.0333 10.725 20.75C11.1917 21.4667 11.7458 22.0292 12.3875 22.4375C13.0292 22.8458 13.6833 23.125 14.35 23.275C15.0167 23.425 15.5583 23.5 15.975 23.5C16.825 23.5 17.5083 23.7042 18.025 24.1125C18.5417 24.5208 18.9667 24.9 19.3 25.25C19.6667 25.6333 20.0208 25.9375 20.3625 26.1625C20.7042 26.3875 21.25 26.5 22 26.5ZM18 22C18.9667 22 19.7917 21.6583 20.475 20.975C21.1583 20.2917 21.5 19.4667 21.5 18.5C21.5 17.5333 21.1583 16.7083 20.475 16.025C19.7917 15.3417 18.9667 15 18 15C17.0333 15 16.2083 15.3417 15.525 16.025C14.8417 16.7083 14.5 17.5333 14.5 18.5C14.5 19.4667 14.8417 20.2917 15.525 20.975C16.2083 21.6583 17.0333 22 18 22Z" fill="white"/>
</svg>
