<svg width="48" height="48" viewBox="0 0 48 48" fill="none" xmlns="http://www.w3.org/2000/svg">
<path d="M12.3257 41.4944H48.0001L43.7037 34.89H38.8682L36.1381 15.0305L32.3431 15.5507C31.8223 15.1097 30.8066 14.3175 29.0181 13.2024C27.3439 12.1517 25.4114 11.6068 23.8553 11.6068C19.3212 11.6068 14.2182 11.6068 14.2182 11.6068L12.8206 10.7743L7.06824 19.3217L9.70871 20.9315L13.1636 25.8424C13.5494 26.3918 14.0701 26.838 14.6741 27.1301C14.6741 27.1301 17.0132 28.2354 18.8809 29.1666C19.555 29.5038 20.3474 29.8011 21.1993 30.0687L21.863 34.8899H16.6157L12.3257 41.4944ZM25.8722 31.3415C28.4686 32.0358 30.6532 29.3946 28.518 27.6159C25.7424 25.3021 25.6541 25.2917 25.6541 25.2917C24.732 24.5435 24.1968 23.424 24.1877 22.2349C24.1826 21.051 24.7021 19.9256 25.6139 19.1626L26.601 18.3456L34.4431 17.265L36.8668 34.8898L37.2278 37.5303H24.2266L23.8656 34.8898L23.285 30.668C24.1618 30.9013 25.0489 31.1189 25.8722 31.3415Z" fill="#0E7490"/>
<path d="M7.11356 6.50574L0 17.1599L5.08612 20.438L12.2711 9.78521L7.11356 6.50574Z" fill="#0E7490"/>
</svg>
