<svg width="36" height="37" viewBox="0 0 36 37" fill="none" xmlns="http://www.w3.org/2000/svg">
<circle cx="18" cy="18.5" r="18" fill="#7C3AED"/>
<rect width="24" height="24" transform="translate(6 6.5)" fill="#7C3AED"/>
<path d="M12 26.5C11.1667 26.5 10.4583 26.2083 9.875 25.625C9.29167 25.0417 9 24.3333 9 23.5V15.5C9 15.2167 9.09583 14.9792 9.2875 14.7875C9.47917 14.5958 9.71667 14.5 10 14.5H26C26.2833 14.5 26.5208 14.5958 26.7125 14.7875C26.9042 14.9792 27 15.2167 27 15.5V23.5C27 24.3333 26.7083 25.0417 26.125 25.625C25.5417 26.2083 24.8333 26.5 24 26.5H12ZM11 16.5V23.5C11 23.7833 11.0958 24.0208 11.2875 24.2125C11.4792 24.4042 11.7167 24.5 12 24.5H24C24.2833 24.5 24.5208 24.4042 24.7125 24.2125C24.9042 24.0208 25 23.7833 25 23.5V16.5H11ZM15 11.5V10.5C15 10.2167 15.0958 9.97917 15.2875 9.7875C15.4792 9.59583 15.7167 9.5 16 9.5H20C20.2833 9.5 20.5208 9.59583 20.7125 9.7875C20.9042 9.97917 21 10.2167 21 10.5V11.5H26C26.2833 11.5 26.5208 11.5958 26.7125 11.7875C26.9042 11.9792 27 12.2167 27 12.5C27 12.7833 26.9042 13.0208 26.7125 13.2125C26.5208 13.4042 26.2833 13.5 26 13.5H10C9.71667 13.5 9.47917 13.4042 9.2875 13.2125C9.09583 13.0208 9 12.7833 9 12.5C9 12.2167 9.09583 11.9792 9.2875 11.7875C9.47917 11.5958 9.71667 11.5 10 11.5H15Z" fill="white"/>
</svg>
