<svg width="36" height="37" viewBox="0 0 36 37" fill="none" xmlns="http://www.w3.org/2000/svg">
<circle cx="18" cy="18.5" r="18" fill="#059669"/>
<path d="M18 28.5C17.7167 28.5 17.4792 28.4042 17.2875 28.2125C17.0958 28.0208 17 27.7833 17 27.5V20.525C15.9333 20.525 14.9083 20.3208 13.925 19.9125C12.9417 19.5042 12.075 18.925 11.325 18.175C10.575 17.425 10 16.5583 9.6 15.575C9.2 14.5917 9 13.5667 9 12.5V11.5C9 11.2167 9.09583 10.9792 9.2875 10.7875C9.47917 10.5958 9.71667 10.5 10 10.5H11C12.05 10.5 13.0667 10.7042 14.05 11.1125C15.0333 11.5208 15.9 12.1 16.65 12.85C17.1667 13.3667 17.5958 13.9333 17.9375 14.55C18.2792 15.1667 18.5417 15.825 18.725 16.525C18.8083 16.4083 18.9 16.2958 19 16.1875C19.1 16.0792 19.2083 15.9667 19.325 15.85C20.075 15.1 20.9417 14.5208 21.925 14.1125C22.9083 13.7042 23.9333 13.5 25 13.5H26C26.2833 13.5 26.5208 13.5958 26.7125 13.7875C26.9042 13.9792 27 14.2167 27 14.5V15.5C27 16.5667 26.7958 17.5917 26.3875 18.575C25.9792 19.5583 25.4 20.425 24.65 21.175C23.9 21.925 23.0375 22.5 22.0625 22.9C21.0875 23.3 20.0667 23.5 19 23.5V27.5C19 27.7833 18.9042 28.0208 18.7125 28.2125C18.5208 28.4042 18.2833 28.5 18 28.5ZM17 18.5C17 17.7 16.8458 16.9375 16.5375 16.2125C16.2292 15.4875 15.7917 14.8417 15.225 14.275C14.6583 13.7083 14.0125 13.2708 13.2875 12.9625C12.5625 12.6542 11.8 12.5 11 12.5C11 13.3 11.15 14.0667 11.45 14.8C11.75 15.5333 12.1833 16.1833 12.75 16.75C13.3167 17.3167 13.9667 17.75 14.7 18.05C15.4333 18.35 16.2 18.5 17 18.5ZM19 21.5C19.8 21.5 20.5625 21.35 21.2875 21.05C22.0125 20.75 22.6583 20.3167 23.225 19.75C23.7917 19.1833 24.2292 18.5333 24.5375 17.8C24.8458 17.0667 25 16.3 25 15.5C24.2 15.5 23.4333 15.6542 22.7 15.9625C21.9667 16.2708 21.3167 16.7083 20.75 17.275C20.1833 17.8417 19.75 18.4875 19.45 19.2125C19.15 19.9375 19 20.7 19 21.5Z" fill="white"/>
</svg>
